<svg xmlns="http://www.w3.org/2000/svg" viewBox="0 0 226.196 243.673">
<path transform="matrix(1,0,0,-1,51.5607,160.7223)" d="M0 0C1.231 .588 2.982 1.527 5.102 2.689L8.589 4.981C4.317 14.614 16.65 30.748 23.288 38.988 27.637 44.372 36.319 54.501 43.432 62.946 48.866 69.379 53.298 73.57 54.553 82.838 55.916 100.354 60.12 118.76 62.092 132.395L64.288 147.588 48.474 152.397C43.357 153.96 36.502 151.517 33.246 146.977L-34.99 51.351C-38.233 46.806-38.254 39.336-35.042 34.756L-8.19-4.298Z" fill="#23101e"/>
<path transform="matrix(1,0,0,-1,177.0807,89.25011)" d="M0 0C-2.003-7.787-11.995-16.552-45.333-21.404-48.029-21.684-49.597-23.018-49.612-24.949-49.851-32.514-31.807-65.57-26.184-77.764-22.209-86.386-18.505-92.964-19.926-96.547-21.81-99.159-25.665-99.737-28.002-99.737-26.581-101.737-25.601-102.753-24.263-104.648L-20.524-109.323 18.486-86.196C22.847-83.609 26.391-77.256 26.391-72.085L26.558 5.637C18.386 3.951 9.157 1.946 0 0" fill="#23101e"/>
<path transform="matrix(1,0,0,-1,120.1774,153.3565)" d="M0 0C-3.609 4.949-8.382 14.402-15.129 15.241-24.371 16.394-57.92-4.404-66.426-8.468L-85.436-18.447-33.17-77.721C-29.679-81.682-22.701-82.886-17.687-80.411L37.678-52.966 30.248-41.808C21.326-29.108 10.21-14.031 0 0" fill="#23101e"/>
<path transform="matrix(1,0,0,-1,148.8117,189.8181)" d="M0 0C-.078 .109-.156 .219-.234 .325-.156 .219-.078 .109 0 0M-20.272 80.982C-22.969 80.701-24.543 79.368-24.553 77.441-24.79 69.875-6.539 35.654-.919 23.455 3.055 14.825 6.764 8.262 5.348 4.675 4.309 2.857-1.126 1.979-2.17 3.047-2.16 3.039-2.155 3.026-2.151 3.024-10.246 14.367-19.582 27.064-28.271 38.998-31.883 43.958-36.653 53.41-43.401 54.244-50.597 55.135-72.516 42.739-85.886 35.281L-86.116 35.52C-90.387 45.146-77.492 59.627-70.849 67.866-66.502 73.26-57.815 83.378-50.703 91.831-45.278 98.272-40.84 102.449-39.581 111.717-38.506 125.529-35.675 139.873-33.561 152.012-32.614 153.52-29.575 151.171-28.431 148.374-26.224 142.933-28.904 129.205-28.904 118.884-28.904 110.275-29.198 95.442-25.053 92.296-22.148 90.087 1.261 94.816 25.146 99.903 25.132 99.898 25.119 99.898 25.102 99.895 23.092 92.111 9.866 86.041-20.272 80.982" fill="#b68e9e"/>
<path transform="matrix(1,0,0,-1,146.1476,65.9879)" d="M0 0C-4.427 2.607-10.184 1.041-12.857-3.499-15.53-8.038-14.108-13.832-9.681-16.439-5.253-19.046 .503-17.48 3.176-12.939 5.849-8.4 4.427-2.607 0 0" fill="#b68e9e"/>
<path transform="matrix(1,0,0,-1,135.2917,84.423007)" d="M0 0C-5.494 3.235-7.265 10.45-3.948 16.083-.63 21.716 6.538 23.667 12.031 20.432 17.524 17.197 19.296 9.982 15.979 4.349 12.662-1.284 5.493-3.235 0 0M65.383 40.449-17.862 63.698-18.488 59.374C-18.903 56.482-19.425 53.376-19.992 50.107-17.924 49.633-13.749 48.089-12.604 45.296-10.391 39.853-12.538 27.195-12.538 16.883-12.538 8.269-13.546-6.564-9.405-9.71-4.994-13.057 45.806-.467 74.698 5.16V28.128C74.698 33.462 70.5 38.998 65.383 40.449" fill="#23101e"/>
</svg>
